<svg xmlns="http://www.w3.org/2000/svg" width="900" height="900"><linearGradient id="a" x1="519.807" x2="626.12" y1="268.389" y2="374.702" gradientUnits="userSpaceOnUse"><stop offset="0" stop-color="#efeeef"/><stop offset="1" stop-color="#fff"/></linearGradient><circle cx="572.962" cy="321.544" r="75.175" fill="url(#a)"/><path fill="#E2DCE3" d="m573.088 397.47-.002-1.5a75.35 75.35 0 0 0 7.776-.415l.158 1.492a76.706 76.706 0 0 1-7.932.423zm-7.934-.396a76.1 76.1 0 0 1-7.851-1.22l.309-1.468a74.46 74.46 0 0 0 7.694 1.196l-.152 1.492zm23.713-1.272-.313-1.467c2.53-.54 5.061-1.22 7.521-2.022l.465 1.426a76.077 76.077 0 0 1-7.673 2.063zm-39.245-1.987a75.863 75.863 0 0 1-7.425-2.836l.609-1.371a74.041 74.041 0 0 0 7.276 2.78l-.46 1.427zm54.332-2.937-.613-1.369a74.902 74.902 0 0 0 6.931-3.55l.752 1.297a76.055 76.055 0 0 1-7.07 3.622zm-68.841-3.5a75.954 75.954 0 0 1-6.669-4.322l.881-1.214a74.522 74.522 0 0 0 6.536 4.236l-.748 1.3zm82.564-4.464-.885-1.212a74.737 74.737 0 0 0 6.044-4.913l1.006 1.113a76.358 76.358 0 0 1-6.165 5.012zm-95.414-4.851a76.561 76.561 0 0 1-5.629-5.608l1.113-1.006a75.125 75.125 0 0 0 5.518 5.498l-1.002 1.116zm107.189-5.787-1.115-1.003a74.94 74.94 0 0 0 4.897-6.057l1.215.881a76.413 76.413 0 0 1-4.997 6.179zm-117.833-5.984a76.058 76.058 0 0 1-4.346-6.65l1.297-.754a74.674 74.674 0 0 0 4.26 6.52l-1.211.884zm127.154-6.861-1.299-.75a74.313 74.313 0 0 0 3.533-6.942l1.371.609a75.505 75.505 0 0 1-3.605 7.083zm-135.127-6.857a75.531 75.531 0 0 1-2.864-7.412l1.426-.466a74 74 0 0 0 2.808 7.265l-1.37.613zm141.574-7.649-1.428-.461a74.177 74.177 0 0 0 2.002-7.528l1.469.309a76.321 76.321 0 0 1-2.043 7.68zm-146.505-7.435a75.984 75.984 0 0 1-1.251-7.846l1.492-.158a74.36 74.36 0 0 0 1.226 7.69l-1.467.314zm149.771-8.095-1.492-.153c.261-2.541.394-5.13.394-7.697l1.5-.082v.082c0 2.618-.135 5.259-.402 7.85zm-149.949-7.684h-1.5v-.167c0-2.643.138-5.312.409-7.933l1.492.154a75.558 75.558 0 0 0-.401 7.778v.168zm148.441-8.025a74.688 74.688 0 0 0-1.217-7.692l1.467-.312a76.022 76.022 0 0 1 1.242 7.847l-1.492.157zm-146.832-7.613-1.467-.311a75.654 75.654 0 0 1 2.051-7.678l1.428.463a74.647 74.647 0 0 0-2.012 7.526zm143.597-7.601a74.62 74.62 0 0 0-2.8-7.268l1.369-.612a75.643 75.643 0 0 1 2.856 7.415l-1.425.465zm-138.793-7.197-1.369-.61a75.632 75.632 0 0 1 3.612-7.079l1.299.751a74.828 74.828 0 0 0-3.542 6.938zm132.447-7.002a74.968 74.968 0 0 0-4.254-6.524l1.213-.884a76.649 76.649 0 0 1 4.338 6.655l-1.297.753zm-124.658-6.465-1.213-.883a76.892 76.892 0 0 1 5.003-6.173l1.115 1.004a75.323 75.323 0 0 0-4.905 6.052zm115.495-6.105a74.94 74.94 0 0 0-5.513-5.504l1.004-1.115a76.547 76.547 0 0 1 5.622 5.614l-1.113 1.005zm-105.084-5.457-1.004-1.114a76.521 76.521 0 0 1 6.17-5.005l.883 1.213a75.074 75.074 0 0 0-6.049 4.906zm93.516-4.95a74.894 74.894 0 0 0-6.531-4.244l.75-1.299a76.094 76.094 0 0 1 6.664 4.33l-.883 1.213zm-80.939-4.206-.752-1.298a76.05 76.05 0 0 1 7.074-3.615l.611 1.37a74.862 74.862 0 0 0-6.933 3.543zm67.468-3.574a74.35 74.35 0 0 0-7.274-2.788l.463-1.427a75.383 75.383 0 0 1 7.421 2.845l-.61 1.37zm-53.265-2.764-.465-1.427a75.759 75.759 0 0 1 7.676-2.055l.311 1.468a74.3 74.3 0 0 0-7.522 2.014zm38.465-2.031a74.463 74.463 0 0 0-7.694-1.204l.154-1.492c2.63.271 5.271.685 7.849 1.229l-.309 1.467zm-23.25-1.196-.156-1.492a77.304 77.304 0 0 1 7.934-.414v1.5a75.681 75.681 0 0 0-7.778.406z"/><linearGradient id="b" x1="308.735" x2="242.113" y1="148.793" y2="250.141" gradientTransform="rotate(-78.317 263.916 204.004)" gradientUnits="userSpaceOnUse"><stop offset="0" stop-color="#fff"/><stop offset="1" stop-color="#efeeef"/></linearGradient><circle cx="261.804" cy="191.816" r="60.636" fill="url(#b)"/><path fill="#E2DCE3" d="M261.867 253.214c-1.447 0-2.914-.052-4.36-.156l.106-1.496c2.597.185 5.235.2 7.832.044l.09 1.497c-1.216.074-2.45.111-3.668.111zm11.631-1.12-.286-1.473a59.794 59.794 0 0 0 7.567-1.994l.477 1.422a61.417 61.417 0 0 1-7.758 2.045zm-23.947-.127-.169-.035a62.247 62.247 0 0 1-7.744-2.13l.491-1.417a60.9 60.9 0 0 0 7.55 2.077l.177.036-.305 1.469zm39.131-4.958-.657-1.349a60.5 60.5 0 0 0 6.799-3.883l.827 1.251a61.935 61.935 0 0 1-6.969 3.981zm-54.44-.325a61.045 61.045 0 0 1-6.926-4.067l.843-1.24a59.584 59.584 0 0 0 6.756 3.966l-.673 1.341zm67.804-8.507-.982-1.134a60.184 60.184 0 0 0 5.571-5.505l1.122.996a61.955 61.955 0 0 1-5.711 5.643zm-81.062-.5a61.586 61.586 0 0 1-5.63-5.724l1.136-.979a60.327 60.327 0 0 0 5.493 5.584l-.999 1.119zm91.698-11.485-1.242-.84a59.674 59.674 0 0 0 3.951-6.765l1.343.669a61.06 61.06 0 0 1-4.052 6.936zm-102.165-.644a61.887 61.887 0 0 1-3.965-6.978l1.35-.654a60.313 60.313 0 0 0 3.869 6.808l-1.254.824zm109.319-13.695-1.419-.487a60.69 60.69 0 0 0 2.034-7.426l.026-.127 1.471.297-.028.137a62.378 62.378 0 0 1-2.084 7.606zm-116.308-.715a61.332 61.332 0 0 1-2.027-7.762l1.473-.283a59.946 59.946 0 0 0 1.978 7.572l-1.424.473zm119.516-14.979-1.496-.108a59.814 59.814 0 0 0 .05-7.83l1.497-.09a60.654 60.654 0 0 1-.051 8.028zm-122.535-.749a61.4 61.4 0 0 1-.103-3.532c0-1.49.056-3.002.166-4.496l1.496.11a60.154 60.154 0 0 0-.162 4.386c0 1.14.034 2.3.1 3.445l-1.497.087zm120.111-14.958a59.93 59.93 0 0 0-1.989-7.569l1.423-.476a61.32 61.32 0 0 1 2.039 7.759l-1.473.286zm-117.462-.761-1.479-.255.01-.048a62.4 62.4 0 0 1 2.113-7.695l1.418.49a60.783 60.783 0 0 0-2.062 7.508zm112.512-14.055a60.376 60.376 0 0 0-3.879-6.802l1.252-.826a62.113 62.113 0 0 1 3.976 6.972l-1.349.656zm-107.412-.671-1.342-.671a61.033 61.033 0 0 1 4.062-6.93l1.241.842a59.56 59.56 0 0 0-3.961 6.759zm98.804-12.374a60.323 60.323 0 0 0-5.501-5.576l.997-1.121a61.694 61.694 0 0 1 5.638 5.715l-1.134.982zm-90.029-.565-1.12-.997a61.447 61.447 0 0 1 5.719-5.634l.98 1.135a60.3 60.3 0 0 0-5.579 5.496zm78.345-9.82a59.933 59.933 0 0 0-6.763-3.957l.671-1.342a61.227 61.227 0 0 1 6.933 4.056l-.841 1.243zm-66.518-.4-.825-1.253a62.019 62.019 0 0 1 6.975-3.97l.655 1.349a60.445 60.445 0 0 0-6.805 3.874zm52.536-6.588a60.702 60.702 0 0 0-7.468-2.048l.215-1.487.086.018a62.144 62.144 0 0 1 7.656 2.1l-.489 1.417zm-38.482-.242-.475-1.423a61.253 61.253 0 0 1 7.761-2.033l.284 1.473a59.555 59.555 0 0 0-7.57 1.983zm23.17-2.901a60.014 60.014 0 0 0-7.831-.056l-.088-1.497a61.282 61.282 0 0 1 8.028.057l-.109 1.496z"/><linearGradient id="c" x1="308.722" x2="437.987" y1="646.714" y2="775.978" gradientTransform="rotate(-45.001 383.168 721.35)" gradientUnits="userSpaceOnUse"><stop offset="0" stop-color="#fff"/><stop offset="1" stop-color="#efeeef"/></linearGradient><circle cx="369.154" cy="721.215" r="91.403" fill="url(#c)"/><path fill="#E2DCE3" d="m369.236 813.367-.002-1.5c2.631-.003 5.29-.12 7.902-.35l.131 1.494a93.066 93.066 0 0 1-8.031.356zm-8.032-.342a92.74 92.74 0 0 1-7.971-1.036l.258-1.479a91.43 91.43 0 0 0 7.842 1.021l-.129 1.494zm24.033-1.064-.261-1.477a91.118 91.118 0 0 0 7.722-1.712l.388 1.449a92.39 92.39 0 0 1-7.849 1.74zm-39.856-1.697a92.533 92.533 0 0 1-7.67-2.403l.511-1.41a90.894 90.894 0 0 0 7.545 2.364l-.386 1.449zm55.373-2.46-.514-1.41a90.588 90.588 0 0 0 7.306-3.03l.635 1.359a92.204 92.204 0 0 1-7.427 3.081zm-70.473-3.01a91.346 91.346 0 0 1-7.132-3.705l.75-1.299a90.256 90.256 0 0 0 7.015 3.645l-.633 1.359zm85.03-3.792-.752-1.299a90.487 90.487 0 0 0 6.664-4.262l.863 1.227a92.432 92.432 0 0 1-6.775 4.334zm-98.94-4.231a92.1 92.1 0 0 1-6.374-4.892l.964-1.148a91.064 91.064 0 0 0 6.27 4.812l-.86 1.228zm112.085-5.012-.967-1.146a92.59 92.59 0 0 0 5.768-5.297l1.117 1.005-.063.063a94.036 94.036 0 0 1-5.855 5.375zm-124.388-5.306-.081-.081a93.795 93.795 0 0 1-5.429-5.918l1.148-.965a91.67 91.67 0 0 0 5.347 5.827l.076.076-1.061 1.061zm135.735-6.06-1.148-.965a90.412 90.412 0 0 0 4.813-6.269l1.229.861a92.57 92.57 0 0 1-4.894 6.373zm-146.149-6.313a91.703 91.703 0 0 1-4.327-6.779l1.299-.75a90.104 90.104 0 0 0 4.256 6.668l-1.228.861zm155.361-6.837-1.299-.75a90.311 90.311 0 0 0 3.647-7.014l1.359.633a91.4 91.4 0 0 1-3.707 7.131zm-163.403-7.074a91.97 91.97 0 0 1-3.074-7.43l1.41-.512a91.019 91.019 0 0 0 3.023 7.309l-1.359.633zm170.179-7.484-1.41-.512a91.153 91.153 0 0 0 2.367-7.545l1.449.387a92.65 92.65 0 0 1-2.406 7.67zm-175.665-7.616a92.446 92.446 0 0 1-1.733-7.851l1.478-.26a91.175 91.175 0 0 0 1.705 7.724l-1.45.387zm179.8-7.906-1.479-.258a90.85 90.85 0 0 0 1.022-7.842l1.494.129a93.001 93.001 0 0 1-1.037 7.971zm-182.575-7.916a93.184 93.184 0 0 1-.349-8.031h1.5c0 2.627.115 5.285.343 7.9l-1.494.131zm182.457-8.086a91.117 91.117 0 0 0-.348-7.9l1.494-.131c.233 2.663.353 5.365.354 8.031h-1.5zm-180.963-7.848-1.494-.129a93.043 93.043 0 0 1 1.043-7.972l1.478.26a90.945 90.945 0 0 0-1.027 7.841zm179.585-7.894a91.566 91.566 0 0 0-1.71-7.723l1.449-.387a93.048 93.048 0 0 1 1.737 7.85l-1.476.26zm-176.854-7.668-1.449-.387a92.344 92.344 0 0 1 2.41-7.668l1.41.512a90.331 90.331 0 0 0-2.371 7.543zm172.767-7.598a90.204 90.204 0 0 0-3.028-7.307l1.359-.635a91.82 91.82 0 0 1 3.079 7.428l-1.41.514zm-167.374-7.251-1.359-.634a91.37 91.37 0 0 1 3.712-7.129l1.299.75a90.496 90.496 0 0 0-3.652 7.013zm160.688-7.068a90.23 90.23 0 0 0-4.261-6.665l1.228-.863a92.239 92.239 0 0 1 4.331 6.776l-1.298.752zm-152.785-6.606-1.228-.861a92.394 92.394 0 0 1 4.897-6.369l1.148.965a90.803 90.803 0 0 0-4.817 6.265zm143.697-6.328a92.125 92.125 0 0 0-5.313-5.787l.493-.567.53-.53-.53.53.557-.504a93.777 93.777 0 0 1 5.411 5.892l-1.148.966zm-133.515-5.787-1.1-1.021.081-.078a92.465 92.465 0 0 1 5.859-5.378l.966 1.148a92.657 92.657 0 0 0-5.806 5.329zm122.334-5.381a90.788 90.788 0 0 0-6.267-4.815l.861-1.229a92.465 92.465 0 0 1 6.371 4.896l-.965 1.148zm-110.258-4.775-.862-1.227a91.522 91.522 0 0 1 6.777-4.33l.751 1.299a89.91 89.91 0 0 0-6.666 4.258zm97.327-4.29a90.674 90.674 0 0 0-7.013-3.649l.634-1.359a92.267 92.267 0 0 1 7.129 3.71l-.75 1.298zm-83.647-3.623-.634-1.359a92.178 92.178 0 0 1 7.429-3.076l.513 1.41a90.2 90.2 0 0 0-7.308 3.025zm69.327-3.046a90.596 90.596 0 0 0-7.543-2.369l.386-1.449a91.764 91.764 0 0 1 7.669 2.408l-.512 1.41zm-54.475-2.354-.387-1.449a92.558 92.558 0 0 1 7.85-1.734l.26 1.477a90.9 90.9 0 0 0-7.723 1.706zm39.209-1.716a91.353 91.353 0 0 0-7.842-1.024l.13-1.494c2.657.23 5.338.581 7.971 1.042l-.259 1.476zm-23.644-1.021-.131-1.494a92.93 92.93 0 0 1 8.032-.351v1.5a91.92 91.92 0 0 0-7.901.345z"/><path fill="#FFF" d="m607.958 286.03 26.997-14.332 14.332 26.999-26.997 14.331z"/><path fill="#E3DDE4" d="m634.924 271.699-26.996 14.331 8.513-17.327 25.692-13.636z"/><path fill="#6A74EF" d="m634.924 271.698 7.209-16.631 13.748 25.899-6.624 17.728z"/><path fill="#B5A8AE" d="M629.484 295.188a.505.505 0 0 1-.447-.275l-13.043-25.985a.501.501 0 0 1 .895-.448l12.815 25.532 25.946-13.488a.5.5 0 1 1 .461.887l-26.396 13.722a.517.517 0 0 1-.231.055z"/><path fill="#B5A8AE" d="M622.262 313.525a.499.499 0 0 1-.465-.683l7.223-18.337a.499.499 0 1 1 .929.366l-7.223 18.337a.498.498 0 0 1-.464.317z"/><path fill="#B5A8AE" d="M622.262 313.525a.496.496 0 0 1-.441-.266l-14.334-26.995a.5.5 0 0 1 .207-.676l26.996-14.331a.498.498 0 0 1 .676.207l14.333 26.995a.5.5 0 0 1-.207.676l-26.995 14.331a.5.5 0 0 1-.235.059zm-13.658-27.288 13.865 26.112 26.112-13.862-13.864-26.112-26.113 13.862z"/><path fill="#F2D265" d="M607.928 286.53a.503.503 0 0 1-.45-.721l8.514-17.327a.51.51 0 0 1 .215-.221l25.691-13.636a.5.5 0 0 1 .693.641l-7.209 16.631a.497.497 0 0 1-.225.243l-26.996 14.331a.483.483 0 0 1-.233.059zm8.89-17.462-7.761 15.795 25.478-13.524 6.571-15.161-24.288 12.89z"/><path fill="#F2D265" d="M649.257 299.194a.499.499 0 0 1-.441-.266l-14.333-26.996a.502.502 0 0 1-.018-.433l7.209-16.63a.5.5 0 0 1 .439-.301c.193-.023.37.095.461.265l13.748 25.899a.5.5 0 0 1 .027.409l-6.624 17.728a.499.499 0 0 1-.437.324l-.031.001zm-13.778-27.518 13.699 25.802 6.156-16.476-13.155-24.782-6.7 15.456z"/><path fill="#5C60D5" d="m302.421 731.959-.966-25.474-23.033 4.933.728 26.905z"/><path fill="#FFF" d="m278.422 711.418.728 26.905-18.989-8.327.596-24.44z"/><path fill="#E3DDE4" d="m301.455 706.485-18.441-5.797-22.257 4.868 17.665 5.862z"/><path fill="#B5A8AE" d="M302.421 732.459a.526.526 0 0 1-.164-.027l-18.329-6.355a.5.5 0 0 1-.336-.451l-1.078-24.916a.5.5 0 0 1 .478-.521c.286.011.509.202.521.479l1.063 24.576 18.008 6.244a.502.502 0 0 1 .309.637.5.5 0 0 1-.472.334z"/><path fill="#B5A8AE" d="M260.16 730.496a.5.5 0 0 1-.09-.992l23.931-4.393a.5.5 0 0 1 .181.984l-23.931 4.393a.57.57 0 0 1-.091.008z"/><path fill="#B5A8AE" d="M279.15 738.823a.503.503 0 0 1-.201-.042l-18.99-8.327a.5.5 0 0 1-.299-.47l.597-24.44a.501.501 0 0 1 .657-.462l17.665 5.862a.5.5 0 0 1 .342.461l.725 26.766c.016.048.024.1.024.153 0 .279-.229.485-.51.5l-.01-.001zm-18.482-9.15 17.961 7.876-.698-25.767-16.691-5.539-.572 23.43z"/><path fill="#F2D265" d="M278.422 711.918a.537.537 0 0 1-.158-.025L260.6 706.03a.501.501 0 0 1 .051-.963l22.257-4.868a.478.478 0 0 1 .257.012l18.44 5.798a.5.5 0 0 1-.045.966l-23.033 4.933a.622.622 0 0 1-.105.01zm-15.778-6.263 15.807 5.245 21.045-4.507-16.504-5.189-20.348 4.451z"/><path fill="#F2D265" d="M279.15 738.823a.498.498 0 0 1-.5-.487l-.729-26.905a.502.502 0 0 1 .396-.503l23.033-4.933a.5.5 0 0 1 .604.471l.966 25.474a.501.501 0 0 1-.368.501l-23.271 6.364a.482.482 0 0 1-.131.018zm-.217-27.003.7 25.853 22.273-6.092-.929-24.482-22.044 4.721z"/><path fill="#92A6EB" d="M259.594 312.833c-4.411 0-8-3.589-8-8s3.589-8 8-8 8 3.589 8 8-3.589 8-8 8zm0-14c-3.309 0-6 2.691-6 6s2.691 6 6 6 6-2.691 6-6-2.692-6-6-6z"/><path fill="#EA971D" d="M254.26 369.5c-6.801 0-12.333-5.533-12.333-12.333s5.533-12.333 12.333-12.333 12.333 5.533 12.333 12.333-5.532 12.333-12.333 12.333zm0-22.667c-5.698 0-10.333 4.636-10.333 10.333s4.636 10.333 10.333 10.333 10.333-4.636 10.333-10.333-4.635-10.333-10.333-10.333z"/><path fill="#F2D265" d="M197.927 380.667c-9.374 0-17-7.626-17-17s7.626-17 17-17 17 7.626 17 17-7.626 17-17 17zm0-32c-8.271 0-15 6.729-15 15s6.729 15 15 15 15-6.729 15-15-6.729-15-15-15z"/><path fill="#6A74EF" d="M221.76 454.5c-11.947 0-21.667-9.72-21.667-21.667s9.72-21.667 21.667-21.667 21.667 9.72 21.667 21.667-9.72 21.667-21.667 21.667zm0-41.333c-10.844 0-19.667 8.822-19.667 19.667s8.822 19.667 19.667 19.667 19.667-8.822 19.667-19.667-8.823-19.667-19.667-19.667z"/><linearGradient id="d" x1="467.199" x2="467.199" y1="614.477" y2="518.678" gradientUnits="userSpaceOnUse"><stop offset="0" stop-color="#724a5f"/><stop offset="1" stop-color="#5b252c"/></linearGradient><path fill="url(#d)" d="M284.677 576.25c17.917 16.583 41.885 6.163 53.583 10.417 11 4 10.81 26.149 35.505 27.737 23.333 1.5 32.687-20.594 46.516-20.638 31.646-.101 27.98-6.017 57.48-7.767s55.666 6.333 86.666-1.5c26.513-6.699 36.408-25.837 42.666-28.5 7.833-3.334 18.668-.666 32.668-6.666 8.721-3.737 15.574-9.521 16.113-21.389-6.084-22.16-43.456 1.063-54.447 11.305-11 10.25-43.75 34.5-47.75 22.5s28.25-17.75 24-29.25-35 0-54.25 10.75-53.5 38.5-88.75 39.5c-28.043.796-51.5-26.25-62.75-35.75s-28.687-17.657-33.625-10.25c-3.25 4.875 2.46 8.781 12.375 19.75 9.779 10.818-3.583 17.167-18 11.25-9.948-4.083-30.917-21.417-44.5-17.5-11.248 3.243-10.026 16.009-9.052 18.405a24.351 24.351 0 0 0 5.552 7.596z"/><radialGradient id="e" cx="525.621" cy="572.607" r="92.396" gradientTransform="matrix(-.3956 .9184 -.5965 -.2569 1075.128 237)" gradientUnits="userSpaceOnUse"><stop offset="0" stop-color="#e08d7d"/><stop offset=".035" stop-color="#e49587"/><stop offset=".137" stop-color="#efaa9e"/><stop offset=".247" stop-color="#f6b8ae"/><stop offset=".369" stop-color="#fbc0b8"/><stop offset=".527" stop-color="#fcc3bb"/><stop offset="1" stop-color="#eaaea4"/></radialGradient><path fill="url(#e)" d="M523.594 504.667s-13.917 2.583-26.417 5.083-18.75 13.25-18.75 13.25 1.5 37.25 1 41.25-11.524 11.695-33.333 21.583c-22.487 10.195-35.667 32.667-48.417 57.417-10.41 20.208-18.954 31.323-22.506 32.924-3.681 4.764-7.056 26.139-4.744 30.076 1.348 2.295 9.024-.005 13.526 5.634 2.013-8.883 4.932-16.23 10.474-24.634 10.167-15.417 52.167-43.583 74.5-62.249s48.667-34.001 56-48.668c8.735-17.472.667-59.333-1.333-71.666z"/><linearGradient id="f" x1="353.33" x2="383.953" y1="712.604" y2="712.604" gradientUnits="userSpaceOnUse"><stop offset="0" stop-color="#dc6734"/><stop offset="1" stop-color="#ae2e41"/></linearGradient><path fill="url(#f)" d="M370.427 706.25c-2.313-3.938 1.063-25.313 4.744-30.076a2.137 2.137 0 0 1-.696.202c-4.875.375-10.547-2.376-14.452-.928-9.406 3.488-7.342 36.137-3.22 53.802 2.42 10.371 7.419 22.795 15.479 20.7 7.021-1.825 8.311-18.015 9.646-26.95.604-4.038 1.25-7.688 2.026-11.116-4.503-5.639-12.179-3.339-13.527-5.634z"/><linearGradient id="g" x1="353.33" x2="376.452" y1="712.584" y2="712.584" gradientUnits="userSpaceOnUse"><stop offset="0" stop-color="#e9aa4a"/><stop offset="1" stop-color="#ea971d"/></linearGradient><path fill="url(#g)" d="M360.022 675.448c-9.406 3.488-7.342 36.137-3.22 53.802 2.42 10.371 7.419 22.795 15.479 20.7 1.7-.441 3.061-1.73 4.171-3.549-5.198.084-10.297-5.725-13.525-20.651-3.712-17.168-3.625-43.25 4.206-50.194-3.019-.681-5.245-.8-7.111-.108z"/><linearGradient id="h" x1="369.668" x2="449.707" y1="655.871" y2="655.871" gradientUnits="userSpaceOnUse"><stop offset="0" stop-color="#92a6eb"/><stop offset="1" stop-color="#6a74ef"/></linearGradient><path fill="url(#h)" d="M426.281 599.857c-11.461 11.502-20.13 26.941-28.604 43.393-10.41 20.208-18.954 31.323-22.506 32.924-3.681 4.764-7.056 26.139-4.744 30.076 1.348 2.295 9.024-.005 13.526 5.634 2.013-8.883 4.932-16.23 10.474-24.634 7.674-11.637 33.481-30.535 55.28-47.131-24.964-5.381-25.03-33.61-23.426-40.262z"/><radialGradient id="i" cx="483.831" cy="585.516" r="149.768" gradientTransform="matrix(.2807 .9598 -.6107 .1786 705.568 16.569)" gradientUnits="userSpaceOnUse"><stop offset="0" stop-color="#e08d7d"/><stop offset=".035" stop-color="#e49587"/><stop offset=".137" stop-color="#efaa9e"/><stop offset=".247" stop-color="#f6b8ae"/><stop offset=".369" stop-color="#fbc0b8"/><stop offset=".527" stop-color="#fcc3bb"/><stop offset="1" stop-color="#eaaea4"/></radialGradient><path fill="url(#i)" d="M541.904 729.101c-.554.209-1.054.292-1.478.233-1.202-.165-21.452-48.534-29.125-72.209-10.25-31.625-18.364-64.293-22.763-75.258-5.362-13.367-9.279-27.2-11.779-33.2 0 0-14.083-8.167-28.333-6.667s-22.25 16.25-21.25 20.25 7.25 16.75 11 26.25 2.604 30.981 20.25 63c16.167 29.334 44.334 57.834 58.833 84.834a363.368 363.368 0 0 1 7.891 15.547c1.195-14.619 13.452-21.349 16.754-22.78z"/><linearGradient id="j" x1="525.15" x2="584.313" y1="740.051" y2="740.051" gradientUnits="userSpaceOnUse"><stop offset="0" stop-color="#dc6734"/><stop offset="1" stop-color="#ae2e41"/></linearGradient><path fill="url(#j)" d="M550.413 784.588c10.389-.713 15.681-16.254 18.681-25.421s9-22 13-34.5 3.083-28.667-6.833-29.166c-11.995-.604-21.417 18.708-25.084 24.874-2.935 4.935-6.054 7.89-8.272 8.726-3.303 1.432-15.56 8.161-16.754 22.78 2.908 6.072 4.92 10.575 8.026 16.119 5.591 9.978 9.637 17.109 17.236 16.588z"/><linearGradient id="k" x1="542.649" x2="584.313" y1="740.681" y2="740.681" gradientUnits="userSpaceOnUse"><stop offset="0" stop-color="#5c60d5"/><stop offset="1" stop-color="#2421a2"/></linearGradient><path fill="url(#k)" d="M550.413 784.588c10.389-.713 15.681-16.254 18.681-25.421s9-22 13-34.5c3.253-10.164 3.254-22.752-2.19-27.37-4.094-1.747-12.809.035-16.643 14.869s-2.746 19.087-4.5 25c-3.584 12.084-11.833 23.668-14 29.834-2.165 6.16-4.474 15.227 3.073 17.448.815.149 1.671.202 2.579.14z"/><linearGradient id="l" x1="535.317" x2="580.771" y1="740.042" y2="740.042" gradientUnits="userSpaceOnUse"><stop offset="0" stop-color="#e9aa4a"/><stop offset="1" stop-color="#ea971d"/></linearGradient><path fill="url(#l)" d="M549.086 784.597a10.128 10.128 0 0 1-1.252-.148c-7.547-2.222-5.238-11.288-3.073-17.448 2.167-6.166 10.416-17.75 14-29.834 1.754-5.913.666-10.166 4.5-25s12.549-16.616 16.643-14.869c.309.262.595.557.868.868-1.385-1.573-3.2-2.548-5.511-2.664-6.698-.337-12.593 5.537-17.133 11.863-4.025 6.21-5.132 18.787-8.076 27.886-2.865 8.855-14.06 21.302-14.734 36.531 4.261 7.39 7.955 12.509 13.768 12.815z"/><linearGradient id="m" x1="460.033" x2="541.904" y1="692.379" y2="692.379" gradientUnits="userSpaceOnUse"><stop offset="0" stop-color="#92a6eb"/><stop offset="1" stop-color="#6a74ef"/></linearGradient><path fill="url(#m)" d="M541.904 729.101c-.554.209-1.054.292-1.478.233-1.202-.165-21.452-48.534-29.125-72.209-2.54-7.837-4.948-15.736-7.202-23.354-24.666-5.041-39.356 12.542-44.066 20.572 16.369 28.333 43.196 55.864 57.227 81.991a363.368 363.368 0 0 1 7.891 15.547c1.194-14.619 13.451-21.349 16.753-22.78z"/><path fill="#E1792B" d="M361.579 539.735c-9.584-5.553-19.704-8.346-23.277-2.985-3.25 4.875 2.46 8.781 12.375 19.75 3.276 3.624 3.945 6.742 2.858 9.07 1.582-3.012 4.736-12.397 8.044-25.835zM553.677 561.75c-4-12 28.25-17.75 24-29.25-3.08-8.335-20.08-4.586-36.533 2.201 3.064 9.42 9.725 23.201 12.988 28.063a5.322 5.322 0 0 1-.455-1.014z"/><linearGradient id="n" x1="466.273" x2="466.273" y1="582.768" y2="395.25" gradientUnits="userSpaceOnUse"><stop offset="0" stop-color="#ae2e41"/><stop offset="1" stop-color="#dc6734"/></linearGradient><path fill="url(#n)" d="M288.177 550.25c13.583-3.917 34.552 13.417 44.5 17.5 14.417 5.917 27.779-.432 18-11.25-9.915-10.969-15.625-14.875-12.375-19.75 4.938-7.407 22.375.75 33.625 10.25s34.707 36.546 62.75 35.75c35.25-1 69.5-28.75 88.75-39.5s50-22.25 54.25-10.75-28 17.25-24 29.25 36.75-12.25 47.75-22.5c10.991-10.241 48.363-33.465 54.447-11.305.019-.425.05-.838.053-1.278.18-27.674-89.5-73.167-107-86.333-17.437-13.119-22.274-22.135-34.167-31-18.333-13.667-29.666-13.833-34.083-14.083 0 0-26.25 2.75-37.25 4.5s-43.998 7.605-43.998 7.605-11.373 4.8-20.252 11.895c-8.643 6.906-25.301 20.717-34.25 43.5-16.333 41.584-41.333 43.25-59 68-9.141 12.807-11.833 27.168-6.802 37.905-.975-2.397-2.196-15.163 9.052-18.406z"/><linearGradient id="o" x1="406.114" x2="511.551" y1="436.714" y2="436.714" gradientUnits="userSpaceOnUse"><stop offset="0" stop-color="#ea971d"/><stop offset="1" stop-color="#e9aa4a"/></linearGradient><path fill="url(#o)" d="M406.821 412.983c.306 1.646.635 3.286 1.054 4.893 1.67 6.428 4.292 12.485 7.64 18.118a75.626 75.626 0 0 0 12.206 15.487 72.16 72.16 0 0 0 16.215 11.943c5.998 3.235 12.578 5.629 19.391 6.821 6.804 1.2 13.81 1.184 20.4-.101 6.599-1.27 12.738-3.78 18.088-7.105 3.597-2.264 6.868-4.865 9.735-7.814a392.09 392.09 0 0 1-4.783-4.355c-2.988.328-5.881.556-8.706.607-5.304.138-10.292-.305-14.898-1.257-9.224-1.916-16.949-5.899-23.972-11.278-6.989-5.405-13.279-12.117-19.078-19.452a164.598 164.598 0 0 1-8.235-11.448 145.974 145.974 0 0 1-3.598-5.74c-7.82 1.349-16.41 2.857-22.166 3.873.023.593.043 1.187.087 1.775.123 1.701.354 3.373.62 5.033z"/><linearGradient id="p" x1="316.695" x2="316.695" y1="564.548" y2="496.044" gradientUnits="userSpaceOnUse"><stop offset="0" stop-color="#ea971d"/><stop offset="1" stop-color="#e9aa4a"/></linearGradient><path fill="url(#p)" d="M326.463 552.46c.334-3.292.891-6.661 1.595-10.049a156.44 156.44 0 0 1 1.151-5.077c.39-1.567.95-3.956 1.301-6.187.744-4.521 1.064-9.379.561-14.488-.488-5.089-1.915-10.448-4.309-15.329a45.5 45.5 0 0 0-3.053-5.286c-7.113 7.08-14.544 12.219-21.632 18.015.161.206.333.408.483.617 1.255 1.713 2.217 3.62 2.867 5.975.649 2.34.97 5.077.946 8.044-.002 1.52-.095 2.845-.294 4.996a135.13 135.13 0 0 0-.379 6.116c-.167 4.094-.173 8.246.097 12.487.017.269.047.542.066.812 7.341 3.221 14.752 8.035 20.635 11.442a32.908 32.908 0 0 1-.288-2.594c-.198-2.988-.072-6.205.253-9.494z"/><linearGradient id="q" x1="349.722" x2="433.618" y1="529.15" y2="529.15" gradientUnits="userSpaceOnUse"><stop offset="0" stop-color="#ea971d"/><stop offset="1" stop-color="#e9aa4a"/></linearGradient><path fill="url(#q)" d="M428.827 559.757a72.623 72.623 0 0 0 2.281-6.658c1.344-4.552 2.15-9.373 2.434-14.323a59.604 59.604 0 0 0-1.15-15.01 59.259 59.259 0 0 0-5.029-14.255c-2.294-4.466-5.184-8.771-8.674-12.558-3.5-3.77-7.49-7.086-11.803-9.673a57.495 57.495 0 0 0-13.421-5.961c-4.578-1.399-9.2-2.188-13.754-2.544-6.742-.484-13.349-.019-19.758 1.348-2.618 9.04-6.461 18.142-10.23 26.467l.006-.002c2.681-.639 5.614-1.064 8.575-1.245 5.935-.372 12.006.127 17.477 1.494a44.23 44.23 0 0 1 7.693 2.641c2.355 1.1 4.5 2.344 6.359 3.782 1.85 1.451 3.487 2.992 4.846 4.763a27.253 27.253 0 0 1 3.515 5.804c.985 2.155 1.722 4.339 2.143 6.59.479 2.24.657 4.559.594 6.969-.084 4.815-1.316 10.027-3.389 15.271-1.589 3.984-3.705 7.964-6.175 11.726 7.396 6.021 16.036 11.898 25.537 15.329a78.55 78.55 0 0 0 9.04-13.687 79.908 79.908 0 0 0 2.883-6.268z"/><linearGradient id="r" x1="554.182" x2="634.56" y1="509.41" y2="509.41" gradientUnits="userSpaceOnUse"><stop offset="0" stop-color="#ea971d"/><stop offset="1" stop-color="#e9aa4a"/></linearGradient><path fill="url(#r)" d="M622.435 503.669c-3.885-3.743-8.379-6.966-13.243-9.399-4.86-2.445-10.062-4.102-15.289-4.984-10.493-1.757-20.946-.598-30.575 2.726a60.434 60.434 0 0 0-9.146 4.047c4.846 5.348 9.104 10.508 12.661 15.453a42.202 42.202 0 0 1 2.48-.78c6.791-1.911 14.071-2.186 20.539-.661 6.5 1.511 12.108 4.807 16.464 9.577 2.786 3.028 5.079 6.666 6.919 10.703 6.471-4.159 14.188-8.2 21.314-10.26a70.385 70.385 0 0 0-2.242-3.994c-2.705-4.444-5.993-8.682-9.882-12.428z"/><linearGradient id="s" x1="483.72" x2="513.175" y1="402.99" y2="432.445" gradientUnits="userSpaceOnUse"><stop offset="0" stop-color="#e9aa4a"/><stop offset="1" stop-color="#ea971d"/></linearGradient><path fill="url(#s)" d="M492.315 404.426c.929 4.33 1.339 8.622 1.057 12.747-.278 4.127-1.257 8.082-3.06 11.787a29.67 29.67 0 0 1-1.559 2.813c3.285 4.067 7.215 8.46 11.905 13.177a48.654 48.654 0 0 0 5.299-6.006c3.958-5.292 6.817-11.51 8.457-17.878.918-3.525 1.48-7.083 1.778-10.621a55.155 55.155 0 0 0-1.434-1.109c-10.508-7.833-18.712-11.228-24.636-12.749.147.437.295.874.435 1.313a67.174 67.174 0 0 1 1.758 6.526z"/><linearGradient id="t" x1="474.008" x2="517.385" y1="497.659" y2="541.036" gradientUnits="userSpaceOnUse"><stop offset="0" stop-color="#e9aa4a"/><stop offset="1" stop-color="#ea971d"/></linearGradient><path fill="url(#t)" d="M491.999 546.582a21.428 21.428 0 0 1-1.227-2.633l-.122-.309-.085-.194-.048-.097c-.019-.051-.054-.193-.08-.286l-.171-.627-.043-.157-.011-.039c.101.488.024.12.045.223l-.015-.053-.056-.212-.115-.423-.208-.842c-.526-2.238-.795-4.41-.796-6.539-.018-4.242.995-8.445 3.304-12.767 2.288-4.305 5.825-8.593 10.132-12.553 4.303-3.968 9.353-7.64 14.724-10.983l2.099-1.279a78.831 78.831 0 0 0 2.635-1.614 68.934 68.934 0 0 0 5.149-3.628c3.362-2.607 6.577-5.635 9.389-9.167a46.815 46.815 0 0 0 1.901-2.558c-5.117-4.961-10.576-10.039-16.296-15.211a24.658 24.658 0 0 1-2.582 2.926c-1.746 1.684-3.806 3.218-6.098 4.598a45.906 45.906 0 0 1-3.608 1.947l-4.405 2.037c-6.806 3.235-13.522 6.975-20.017 11.687-6.461 4.712-12.754 10.438-17.962 17.802-2.591 3.675-4.881 7.757-6.638 12.172a55.436 55.436 0 0 0-3.573 13.898c-.595 4.771-.566 9.564-.053 14.169l.213 1.721.124.853.063.427.016.106.066.343.025.16.104.642.059.348.109.532.229 1.066.222.942a55 55 0 0 0 2.242 7.147c1.803 4.63 4.178 8.914 6.877 12.787.394.563.807 1.099 1.213 1.644 11.862-4.982 23.005-11.54 32.775-17.673-.236-.176-.478-.348-.708-.525-3.896-3.007-6.921-6.366-8.798-9.808z"/><path fill="#EA971D" d="M337.548 538.355c-.183-1.545.088-3.108.425-4.619.358-1.515.833-2.996 1.343-4.462 1.028-2.931 2.211-5.799 3.416-8.653l7.464-16.987c2.422-5.678 4.778-11.38 6.747-17.206.985-2.911 1.915-5.839 2.69-8.804.76-2.944 1.43-6.018 2.263-9.006 3.303-11.98 7.85-23.713 14.354-34.367 3.242-5.321 6.986-10.347 11.267-14.87 4.303-4.493 9.108-8.521 14.418-11.712-10.192 7.084-18.206 16.772-24.344 27.379a125.85 125.85 0 0 0-7.966 16.598c-2.273 5.709-4.194 11.561-5.801 17.498-.843 2.969-1.504 5.94-2.305 8.982a118.67 118.67 0 0 1-2.793 8.922c-2.097 5.861-4.509 11.59-7.11 17.217-2.576 5.639-5.338 11.18-7.996 16.757-1.337 2.785-2.651 5.581-3.811 8.438-.577 1.43-1.114 2.875-1.546 4.353-.428 1.472-.797 2.992-.715 4.542zM471.643 398.382c1.433 7.143 4.462 13.83 8.272 19.962 3.77 6.172 8.25 11.886 13.068 17.277a225.594 225.594 0 0 0 15.29 15.406c2.662 2.454 5.405 4.816 8.139 7.226l8.148 7.261c5.366 4.915 10.664 9.908 15.852 15.019 5.172 5.125 10.291 10.318 15.076 15.822 4.795 5.489 9.394 11.175 13.435 17.26 1.993 3.058 3.842 6.216 5.423 9.507 1.579 3.286 2.874 6.729 3.592 10.299-1.909-7.038-5.651-13.367-9.825-19.254-4.167-5.918-8.864-11.452-13.769-16.783-9.824-10.657-20.347-20.671-31.128-30.392l-8.07-7.313c-2.698-2.419-5.444-4.822-8.105-7.317-5.322-4.983-10.496-10.151-15.21-15.733-4.723-5.565-9.117-11.442-12.755-17.788-3.565-6.357-6.446-13.228-7.433-20.459z"/><linearGradient id="u" x1="468.498" x2="552.483" y1="310.477" y2="310.477" gradientUnits="userSpaceOnUse"><stop offset="0" stop-color="#eaaea4"/><stop offset=".313" stop-color="#e8a89d"/><stop offset=".782" stop-color="#e39688"/><stop offset="1" stop-color="#e08c7c"/></linearGradient><path fill="url(#u)" d="M552.427 325c1.5-6-27-22.75-40.5-27.25-6.472-2.157-17.371-6.554-29.248-10.549-5.265 4.507-13.967 15.335-14.181 33.957 10.565 3.106 32.994 9.558 52.679 11.842 22.625 2.625 29.75-2 31.25-8z"/><linearGradient id="v" x1="444.232" x2="477.302" y1="279.284" y2="312.354" gradientUnits="userSpaceOnUse"><stop offset="0" stop-color="#5c60d5"/><stop offset=".588" stop-color="#2421a2"/><stop offset="1" stop-color="#250f52"/></linearGradient><path fill="url(#v)" d="M482.679 287.201C469.782 282.863 455.73 279 444.927 279c0 0-5.875 3.25-7.375 12.75-2.975 18.84 19.875 26.25 26.125 28 1.045.293 2.699.785 4.821 1.408.214-18.621 8.916-29.45 14.181-33.957z"/><linearGradient id="w" x1="417.938" x2="417.938" y1="408.179" y2="278.977" gradientUnits="userSpaceOnUse"><stop offset="0" stop-color="#250f52"/><stop offset=".412" stop-color="#2421a2"/><stop offset="1" stop-color="#5c60d5"/></linearGradient><path fill="url(#w)" d="M355.105 294.657c3.71-1.25 9.655-4.073 36.572-6.323s33.583-6.833 33.583-6.833 11.564-2.82 19.979-2.498c-.5 7.873 1.438 12.623 5.313 18.873 6.896 11.123 26.476 21.985 29.286 34.096 2.589 11.154-4.786 21.029-5.036 24.654-.373 5.414 6.875 37.375 5.875 38.625s-50.248 16.605-81.248 12.105c0 0-14.835-56.689-28.835-75.189s-15.489-37.51-15.489-37.51z"/><linearGradient id="x" x1="318.283" x2="318.283" y1="280.646" y2="156.774" gradientUnits="userSpaceOnUse"><stop offset="0" stop-color="#be4118"/><stop offset="1" stop-color="#ea971d"/></linearGradient><path fill="url(#x)" d="M429.567 186.94c6.258-8.818 5.276-21.305.526-24.273-5.333-3.333-8.5 2.166-12.167.833s-6.25-6.256-15.833-6.333c-10.333-.083-14 6.333-21.667 6.167s-19.135-8.43-37.167-6.167c-20.583 2.583-36.458 23.083-51.833 30.833-17.771 8.958-36.284 4.411-46.167 10.667-11.583 7.333-8.25 15.41-15.083 21.333-7.5 6.5-38.25 15.375-29.969 40.243 7.318 21.977 39.759 23.396 58.553 17.257 14.542-4.75 40.542-21.5 47-19.167 7.082 2.559-2.737 15.633 6.292 18.417 15 4.625 29.25-15 37.708-16.917 6.667-1.51 19.667 5.333 29.667-4.667s17.333-16.667 24.5-15.833 16.92-2.226 18.188-8.333.125-10.188 4.646-15.333c3.405-3.875 11.095-8.597 11-15.667-.083-6.125-8.208-5.125-8.667-10-.07-.742.001-1.517.139-2.303l.334-.757z"/><linearGradient id="y" x1="396.475" x2="396.475" y1="295.584" y2="235.411" gradientUnits="userSpaceOnUse"><stop offset="0" stop-color="#eaaea4"/><stop offset=".313" stop-color="#e8a89d"/><stop offset=".782" stop-color="#e39688"/><stop offset="1" stop-color="#e08c7c"/></linearGradient><path fill="url(#y)" d="M406.427 243c3 8.333 13.5 31.333 18.833 38.5-2.708 6.125-7.086 10.25-15.833 12.667-10.25 2.833-22.833 1-24.333-1.833-.667-2.917.833-6.083-2.833-15.667-2.619-6.844-6.828-21.964-13.831-35.649S406.427 243 406.427 243z"/><linearGradient id="z" x1="361.307" x2="426.043" y1="229.679" y2="229.679" gradientUnits="userSpaceOnUse"><stop offset="0" stop-color="#fcc3bb"/><stop offset=".3" stop-color="#fbc0b8"/><stop offset=".532" stop-color="#f6b8ae"/><stop offset=".74" stop-color="#efaa9e"/><stop offset=".934" stop-color="#e49587"/><stop offset="1" stop-color="#e08d7d"/></linearGradient><path fill="url(#z)" d="M414.363 195.387c-6.053.662-11.574-.477-13.436.113-5 1.583-4.459 8.942-10.6 9.513-7.167.667-16.234-4.097-20.4 1.487-2.24 3.002-1.333 7.333 1 12.833s-.422 11.7-5.954 13.73a18.57 18.57 0 0 1-1.737.535c.127.202.248.412.377.612a8.217 8.217 0 0 0-2.306 5.712 8.25 8.25 0 0 0 8.25 8.25 8.205 8.205 0 0 0 4.083-1.086c13.204 13.986 29.313 20.926 42.121 14.58 18.167-9 8.667-49.833-1.081-65.791-.104-.168-.212-.323-.317-.488z"/><path fill="#EA971D" d="M200.673 261.526c1.344-2.573 3.571-4.602 6.016-6.149 2.476-1.536 5.247-2.559 8.092-3.184 2.893-.526 5.781-.627 8.672-.792 2.89-.139 5.779-.235 8.667-.329 11.548-.332 23.111-.534 34.568-1.664 2.86-.292 5.712-.65 8.525-1.154 2.81-.516 5.596-1.108 8.174-2.203 5.157-2.188 9.558-5.979 13.707-9.909 4.18-3.936 8.126-8.231 12.954-11.694 2.415-1.703 5.106-3.184 8.102-3.879a16.327 16.327 0 0 1 2.27-.372l1.109-.077c.38-.013.766-.035 1.138-.031 1.5-.014 3.001.103 4.48.342 2.96.483 5.807 1.46 8.485 2.689 2.685 1.227 5.219 2.691 7.715 4.144 2.498 1.45 4.968 2.903 7.543 4.038 2.566 1.134 5.268 1.921 8.005 1.938a15.51 15.51 0 0 0 4.058-.493c1.346-.342 2.62-.801 3.71-1.532 2.215-1.443 3.763-3.868 4.133-6.492a9.397 9.397 0 0 0-.259-3.932c-.173-.637-.442-1.238-.727-1.94a39.203 39.203 0 0 1-.775-2.07c-.475-1.4-.877-2.844-1.077-4.358-.194-1.504-.17-3.128.41-4.654a7.035 7.035 0 0 1 1.23-2.063 6.94 6.94 0 0 1 1.859-1.552c1.412-.813 3.01-1.066 4.512-1.098 3.03-.03 5.876.64 8.708 1.043 1.415.208 2.827.373 4.226.381.711 0 1.377-.023 2.059-.15a5.373 5.373 0 0 0 1.803-.692c1.117-.685 1.944-1.814 2.685-3.021.75-1.204 1.434-2.524 2.463-3.666 1.012-1.114 2.482-2.052 4.082-2.046 1.501-.035 2.929.119 4.371.204 2.872.195 5.75.275 8.598-.059 2.841-.328 5.653-1.083 8.179-2.449a18.098 18.098 0 0 0 3.522-2.46c1.064-.963 1.969-2.104 2.905-3.201-.899 1.13-1.757 2.296-2.802 3.312a18.286 18.286 0 0 1-3.478 2.613c-2.527 1.46-5.377 2.302-8.258 2.711-2.887.416-5.814.409-8.706.288-1.442-.048-2.899-.161-4.287-.091-1.337.028-2.508.824-3.393 1.831-.889 1.034-1.544 2.304-2.293 3.563-.742 1.248-1.635 2.559-2.986 3.424a6.465 6.465 0 0 1-2.206.883c-.737.149-1.521.192-2.253.201-1.492.015-2.959-.135-4.405-.324-2.883-.37-5.728-.972-8.494-.894-1.371.049-2.714.308-3.811.967a5.484 5.484 0 0 0-1.433 1.232 5.51 5.51 0 0 0-.956 1.653c-.435 1.196-.455 2.553-.258 3.898.199 1.35.593 2.698 1.067 4.024.239.663.493 1.326.761 1.981.26.634.587 1.354.798 2.112.436 1.5.551 3.098.33 4.648-.422 3.109-2.238 5.993-4.863 7.724-.639.429-1.372.812-2.078 1.093-.721.284-1.428.513-2.167.702a17.357 17.357 0 0 1-4.518.572c-3.063-.004-6.029-.869-8.737-2.049-2.722-1.184-5.25-2.658-7.753-4.093-4.972-2.883-10.032-5.652-15.566-6.517a24.665 24.665 0 0 0-4.149-.339c-.351-.006-.686.013-1.028.021l-1.053.067c-.673.055-1.343.168-2.005.318-2.657.599-5.144 1.931-7.444 3.537-4.607 3.26-8.566 7.498-12.805 11.455-4.228 3.95-8.753 7.859-14.306 10.188-2.76 1.145-5.669 1.761-8.54 2.247-2.882.47-5.773.786-8.665 1.035-11.569.952-23.141.982-34.692 1.113-2.889.019-5.776.041-8.66.104-2.875.088-5.785.121-8.595.559-2.808.54-5.56 1.479-8.041 2.924-2.46 1.442-4.738 3.37-6.169 5.893z"/><linearGradient id="A" x1="402.224" x2="415.922" y1="222.615" y2="222.615" gradientUnits="userSpaceOnUse"><stop offset="0" stop-color="#f1aea3"/><stop offset="1" stop-color="#e25ab8"/></linearGradient><path fill="url(#A)" d="M402.594 212.833c1.697-1.272 12.333 9.333 13.25 12.917.895 3.495-6.083 6.833-7.917 6.75-1.238-.056-.333-4.417-2.167-9.25-1.941-5.119-4.5-9.417-3.166-10.417z"/><path fill="#BE4118" d="M381.608 229.004c-.167-1.303-.001-2.772.642-4.089a6.383 6.383 0 0 1 3.187-3.063c.693-.309 1.433-.474 2.164-.551.183-.014.366-.032.548-.035.102-.001.158-.008.297-.005l.232.005c.399.021.778.071 1.138.158 1.457.343 2.767 1.238 3.492 2.461a.774.774 0 0 1-1.012 1.088l-.044-.023c-1.024-.521-1.969-.874-2.94-1.012a7.483 7.483 0 0 0-.701-.068l-.397-.006c-.127-.001-.252.01-.378.016-.5.037-.976.154-1.427.315-.898.334-1.666.953-2.226 1.796-.565.849-.903 1.881-1.074 3.043a.756.756 0 0 1-1.498-.013l-.003-.017zM411.624 216.994c-.01-1.061.127-2.206.608-3.308.456-1.094 1.41-2.193 2.693-2.663a5.196 5.196 0 0 1 1.909-.336c.157.001.312.007.464.02.238.019.27.027.443.049.366.056.652.132.964.231 1.218.406 2.239 1.338 2.616 2.491a.79.79 0 0 1-1.135.937l-.063-.036c-.839-.469-1.491-.841-2.203-1.089a3.916 3.916 0 0 0-.512-.139 4.27 4.27 0 0 0-.609-.061 3.44 3.44 0 0 0-1.084.13c-.653.206-1.213.673-1.649 1.395-.438.717-.732 1.593-.952 2.547a.754.754 0 0 1-1.49-.162v-.006z"/><path fill="#EA971D" d="M206.737 235.461c2.052-.933 4.128-1.821 6.267-2.559a42.62 42.62 0 0 1 6.576-1.683c4.477-.771 9.044-.828 13.563-.607 4.532.235 9.005.858 13.483 1.226 4.479.395 8.965.675 13.441.68 4.472-.007 8.946-.267 13.298-1.077 2.171-.416 4.31-.983 6.344-1.783 1.003-.396 2.04-.857 2.916-1.388a18.395 18.395 0 0 0 2.593-1.906c6.532-5.809 10.451-14.556 18.344-19.932 1.97-1.294 4.2-2.267 6.545-2.734a18.921 18.921 0 0 1 3.528-.351 27.48 27.48 0 0 1 3.513.213c4.625.59 8.979 2.115 13.198 3.754 4.225 1.634 8.334 3.525 12.555 4.82 2.096.615 4.278 1.104 6.295.842 1.001-.129 1.929-.481 2.682-1.092.795-.659 1.479-1.458 2.087-2.345 2.417-3.596 3.339-8.093 5.013-12.341.853-2.104 1.916-4.314 3.86-5.83a7.503 7.503 0 0 1 3.3-1.451c1.196-.196 2.32-.212 3.476-.183 4.582.165 8.987 1.24 13.464 1.349 2.221.045 4.495-.166 6.521-1.104 2.042-.905 3.651-2.635 4.659-4.647-.916 2.051-2.462 3.889-4.527 4.918-2.056 1.043-4.393 1.332-6.655 1.363-4.556.037-9.032-.894-13.477-.899-1.095.007-2.237.045-3.262.241a6.393 6.393 0 0 0-2.805 1.298c-1.634 1.315-2.603 3.351-3.378 5.4-1.554 4.135-2.35 8.715-4.911 12.738-.644.984-1.418 1.934-2.346 2.731-.984.837-2.237 1.33-3.463 1.51-2.484.344-4.814-.226-7.023-.841-4.416-1.325-8.53-3.194-12.722-4.781-4.176-1.593-8.426-3.033-12.771-3.554a25.67 25.67 0 0 0-3.233-.177 16.95 16.95 0 0 0-3.188.334c-2.078.43-4.05 1.301-5.839 2.49-3.615 2.365-6.501 5.813-9.276 9.314-2.794 3.501-5.441 7.242-8.976 10.323a20.083 20.083 0 0 1-2.864 2.073c-1.06.626-2.098 1.07-3.19 1.497-2.169.836-4.412 1.412-6.669 1.828-4.52.833-9.097 1.009-13.633.913-4.54-.097-9.056-.473-13.548-.961-4.499-.467-8.955-1.166-13.424-1.507-4.468-.366-8.975-.458-13.418.156-4.447.595-8.749 2.028-12.923 3.722zM236.798 207.882c2.57-1.329 5.33-2.383 8.245-2.788 2.913-.44 5.897-.132 8.757.381 2.866.524 5.679 1.127 8.525 1.386 2.842.27 5.699.269 8.537-.016 2.848-.295 5.652-.739 8.31-1.667 2.671-.904 5.224-2.172 7.664-3.636 4.896-2.924 9.36-6.577 13.825-10.259 2.246-1.83 4.498-3.674 6.861-5.414 2.37-1.721 4.839-3.396 7.661-4.542a15.793 15.793 0 0 1 4.441-1.109 22.142 22.142 0 0 1 4.524-.029c3.008.274 5.892 1.192 8.593 2.334 2.708 1.098 5.283 2.57 7.929 3.196 1.327.297 2.596.179 3.659-.639 1.097-.782 2.029-1.873 2.914-2.988 1.779-2.242 3.353-4.721 5.375-6.856 1.011-1.057 2.155-2.038 3.509-2.649a6.415 6.415 0 0 1 4.3-.337 6.258 6.258 0 0 0-4.169.61c-1.264.657-2.317 1.653-3.247 2.732-1.863 2.181-3.286 4.701-4.984 7.089-.861 1.186-1.785 2.366-3.017 3.324-.583.463-1.397.891-2.196 1.025-.813.156-1.625.107-2.388-.024-1.533-.271-2.911-.839-4.264-1.387-1.35-.558-2.67-1.135-4.003-1.65-2.658-1.034-5.384-1.818-8.163-2.037-2.774-.191-5.59.045-8.095 1.145-2.544 1.074-4.923 2.666-7.217 4.362-2.295 1.707-4.517 3.549-6.755 5.387-4.492 3.652-9.033 7.369-14.134 10.34-2.55 1.474-5.238 2.759-8.073 3.668-2.837.95-5.812 1.34-8.727 1.557-2.935.209-5.9.155-8.815-.237-2.918-.378-5.761-1.09-8.569-1.726-2.8-.65-5.646-1.093-8.505-.813-2.854.266-5.646 1.131-8.308 2.267z"/><ellipse cx="410.385" cy="244.083" fill="#E08C7C" rx="4.884" ry="4.194" transform="rotate(78.06 410.374 244.085)"/><linearGradient id="B" x1="408.139" x2="537.966" y1="216.772" y2="216.772" gradientUnits="userSpaceOnUse"><stop offset="0" stop-color="#dc6734"/><stop offset="1" stop-color="#ae2e41"/></linearGradient><path fill="url(#B)" d="M410.852 240.107c.586-.131 1.361-.333 2.059-.511l2.152-.567 4.315-1.162 8.625-2.389c5.75-1.597 11.486-3.25 17.217-4.92 5.736-1.652 11.462-3.34 17.173-5.079a1347.358 1347.358 0 0 0 17.121-5.245s12.845-3.896 17.07-5.364c8.431-2.93 18.843-7.246 23.468-11.808 5.087-1.89 3.983 1.924 7.035-1.208.734-.793 1.335-1.585 1.719-2.424a7.645 7.645 0 0 0 .614-1.99c-.002.125.05-.399.041-.322a.85.85 0 0 0 .017-.163c.088-1.187-.722-2.244-1.539-2.487l-.604-.179a3.792 3.792 0 0 1 1.247-7.423c2.589.115 4.978 1.365 6.622 3.173 1.659 1.81 2.623 4.214 2.744 6.599.015.29.025.587.013.957-.02.45-.002.299-.046.794a15.826 15.826 0 0 1-.208 1.519 15.51 15.51 0 0 1-.885 2.963c-.776 1.918-1.925 3.601-3.2 5.009-2.574 2.819-5.524 4.658-8.417 6.185a56.035 56.035 0 0 1-4.369 2.041l-2.184.883c-.311.123-.804.313-1.175.442l-1.141.392c-5.869 1.908-11.572 3.494-17.365 5.097a1857.09 1857.09 0 0 1-17.323 4.691l-17.321 4.645a1847.842 1847.842 0 0 0-17.298 4.707l-34.693 9.598a3.312 3.312 0 1 1-1.766-6.386c.05-.014.1-.026.15-.038l.132-.03z"/><linearGradient id="C" x1="525.948" x2="525.948" y1="205.227" y2="186.163" gradientUnits="userSpaceOnUse"><stop offset="0" stop-color="#ea971d"/><stop offset="1" stop-color="#ae2e41"/></linearGradient><path fill="url(#C)" d="M535.665 190.584c-3.551-.897-6.551 1.291-5.926 5.416.567 3.747 3.584 4.708 4.021 5.083s-1.667 2.25-8.167 3.667c-1.225.267-3.575.841-4.758.148-2.444-1.431-4.429-4.443-4.597-8.023-.174-3.686 2.473-9.765 9.688-10.625 6.813-.812 9.739 4.334 9.739 4.334z"/><path fill="#E3DDE4" d="M415.868 238.812c-.379.11-.805.217-.805.217l-2.152.567c-.698.178-1.472.38-2.059.511l-.133.03a3.313 3.313 0 1 0 1.616 6.424l5.277-1.46c0-.001-2.644-1.518-1.744-6.289z"/><linearGradient id="D" x1="463.037" x2="558.249" y1="225.992" y2="321.204" gradientUnits="userSpaceOnUse"><stop offset="0" stop-color="#fcc3bb"/><stop offset=".3" stop-color="#fbc0b8"/><stop offset=".532" stop-color="#f6b8ae"/><stop offset=".74" stop-color="#efaa9e"/><stop offset=".934" stop-color="#e49587"/><stop offset="1" stop-color="#e08d7d"/></linearGradient><path fill="url(#D)" d="M534.677 288.5c-12.035-16.352-32.75-30.75-38.125-40.5-1.908-3.462-1.25-8.125-1.375-14.125-.076-3.635-.289-7.398-.445-9.808-4.359 1.193-8.72 2.383-13.084 3.543l-6.795 1.822c.306 4.085-.374 11.501-.926 11.942-.625.5-1.5-2.875-2.875-7.125s-3.542-11.766-5.625-10.625c-1.75.958-.24 18.775 1.188 23.938 1.625 5.875 8.313 8.771 15.313 16.771s28.444 42.506 39.667 53.833c9.083 9.167 20.746 15.947 25.267 13.209 4.068-2.463 7.316-4.792 7.233-10.459-.082-5.543-8.143-17.097-19.418-32.416z"/><path fill="#9B6D6D" d="M473.027 239.562c.387.937 1.015 1.723 1.854 2.193.835.479 1.82.666 2.83.792 1.014.132 2.073.182 3.178.492.549.157 1.115.398 1.617.781.504.378.913.898 1.186 1.452l.013.025a.752.752 0 1 1-1.376.6c-.304-.794-.937-1.344-1.829-1.669-.884-.332-1.915-.476-2.952-.692-1.034-.215-2.13-.502-3.068-1.143-.946-.629-1.598-1.629-1.921-2.644l-.004-.014a.25.25 0 0 1 .163-.316.25.25 0 0 1 .309.143zM478.461 230.152c-.002.725-.009 1.45-.031 2.168-.026.708-.054 1.457-.161 2.068l-.003.022a.75.75 0 1 0 1.487.201c.081-.834.044-1.548.021-2.297a79.42 79.42 0 0 0-.123-2.202l-.148-1.927-1.053.282.011 1.685zM484.271 228.261l.059 2.068c.008.679.019 1.392-.027 2.01l-.002.019-.002.056a.752.752 0 0 0 1.502-.002c-.001-.771-.067-1.446-.126-2.153l-.214-2.088c-.062-.516-.126-1.028-.19-1.541-.355.095-.71.193-1.065.289.022.447.046.896.065 1.342zM490.608 226.464c-.043-.415-.103-.826-.149-1.24l-.986.267c.004.344.02.688.021 1.032l-.019 1.906c-.02.621-.039 1.283-.126 1.816l-.002.016c-.005.025-.007.052-.009.078a.752.752 0 0 0 1.501.083c.04-.742-.015-1.365-.057-2.024a67.416 67.416 0 0 0-.174-1.934z"/><linearGradient id="E" x1="479.242" x2="479.242" y1="178.194" y2="110.533" gradientUnits="userSpaceOnUse"><stop offset="0" stop-color="#e9aa4a"/><stop offset="1" stop-color="#f2d265"/></linearGradient><path fill="url(#E)" d="M499.189 171.864c-1.474-.472-2.883-1.019-4.116-1.676-1.438-.757-2.618-1.707-3.146-2.557a3.155 3.155 0 0 1-.302-.605 2.085 2.085 0 0 1-.086-.287l-.067-.355c.006-.165.013-.542.186-1.02.316-1.001 1.265-2.513 2.351-4.167 1.08-1.679 2.338-3.593 3.274-6.004.95-2.379 1.42-5.401.923-8.231a16.38 16.38 0 0 0-.475-2.055 18.571 18.571 0 0 0-.733-1.982l-.151-.341-.126-.269-.115-.236a14.473 14.473 0 0 0-.503-.931 15.752 15.752 0 0 0-1.194-1.769c-1.758-2.279-4.056-3.908-6.185-5.048-2.149-1.153-4.198-1.933-6.057-2.667-1.859-.727-3.547-1.4-4.952-2.147a14.976 14.976 0 0 1-1.882-1.161 9.562 9.562 0 0 1-.738-.597l-.175-.159-.137-.125-.069-.063c.113.098.03.024.054.044l-.004-.005-.009-.01a1.555 1.555 0 0 1-.125-.16c-.143-.211-.25-.418-.392-.851-.138-.424-.279-1.055-.412-1.877-.285-1.632-.474-3.99-1.419-6.747a16.907 16.907 0 0 0-2.095-4.132 16.824 16.824 0 0 0-2.877-3.141l-8.14 9.547c.036.022.082.045.116.068.778.552 1.172.942 1.629 1.919.46.977.779 2.595 1.287 4.852.267 1.123.608 2.43 1.218 3.85.597 1.412 1.529 2.936 2.735 4.188.299.314.613.609.935.888l.179.154.072.059.146.116.401.315c.589.451 1.106.801 1.672 1.157a26.114 26.114 0 0 0 3.319 1.746c2.186.965 4.258 1.608 6.145 2.208 1.886.594 3.594 1.144 4.999 1.781 1.414.638 2.458 1.33 3.21 2.153a6.176 6.176 0 0 1 .765 1.025l.058.094.015.023-.03-.062.012.021.042.083.173.331c.103.203.247.508.357.791.104.282.192.559.261.832.264 1.086.229 2.151-.18 3.5-.405 1.341-1.208 2.86-2.181 4.577-.941 1.747-2.178 3.632-2.931 6.482-.354 1.436-.499 3.096-.09 4.882l.114.436a10.226 10.226 0 0 0 .651 1.752c.34.712.751 1.371 1.203 1.962 1.852 2.367 4.104 3.663 6.217 4.641 1.166.523 2.323.938 3.475 1.291l3.9-6.331z"/><linearGradient id="F" x1="543.979" x2="543.979" y1="167.477" y2="71.418" gradientUnits="userSpaceOnUse"><stop offset="0" stop-color="#6a74ef"/><stop offset="1" stop-color="#92a6eb"/></linearGradient><path fill="url(#F)" d="M552.529 71.418c.009.154.03.326.034.473.024.827-.044 1.514-.159 2.034-.12.521-.265.868-.469 1.188a3.21 3.21 0 0 1-.174.24c-.044.046-.047.063-.123.138l-.226.223c-.311.299-.687.624-1.109.965-.849.686-1.884 1.432-3.021 2.277-1.137.848-2.387 1.797-3.676 2.985-1.281 1.186-2.629 2.645-3.749 4.505-1.124 1.845-1.924 4.109-2.165 6.305-.033.274-.057.546-.075.818l-.021.404-.014.485.014.779c.012.398.043.639.071.96.136 1.216.443 2.43.877 3.528.876 2.216 2.137 3.859 3.256 5.135 1.137 1.282 2.194 2.265 3.112 3.157 1.854 1.768 3.114 3.164 3.793 4.52.35.68.579 1.366.713 2.146.066.373.108.835.119 1.198l.001.624c-.014.197-.021.396-.048.592-.162 1.562-.842 3.175-2.025 4.854-1.183 1.671-2.82 3.333-4.657 4.95-3.688 3.279-8.137 6.258-12.446 10.297-1.074 1.029-2.142 2.134-3.146 3.407a21.931 21.931 0 0 0-1.448 2.057l-.259.427-.318.557c-.229.396-.402.745-.582 1.101-1.412 2.858-2.244 5.788-2.79 8.672-.867 4.769-.994 9.444-.717 14.06l7.384-.559c.023-4.041.409-8.056 1.331-11.778.581-2.309 1.382-4.498 2.453-6.353.136-.23.272-.47.391-.641l.193-.299.284-.411c.254-.355.585-.765.927-1.146.694-.777 1.525-1.547 2.42-2.305 3.643-3.054 8.239-5.786 12.753-9.291 2.26-1.769 4.551-3.75 6.623-6.298 2.05-2.523 3.881-5.792 4.549-9.511.089-.459.15-.922.209-1.386l.066-.795.034-.574c.039-.967.015-1.837-.075-2.785a18.79 18.79 0 0 0-1.398-5.519c-1.49-3.54-3.862-6.176-5.713-8.194-.936-1.016-1.767-1.912-2.345-2.665-.59-.755-.872-1.331-.929-1.616-.092-.307.055-1.358.609-2.019.557-.805 2.051-2.012 4.145-3.35 1.042-.683 2.217-1.42 3.5-2.327a31.953 31.953 0 0 0 2.002-1.533l.516-.444c.171-.147.402-.367.597-.553.403-.393.789-.811 1.156-1.246 1.473-1.748 2.552-3.82 3.199-5.844.65-2.022.923-3.99 1.003-5.814l-14.457-.805z"/><linearGradient id="G" x1="586.969" x2="586.969" y1="171.529" y2="122.915" gradientUnits="userSpaceOnUse"><stop offset="0" stop-color="#ea971d"/><stop offset="1" stop-color="#e9aa4a"/></linearGradient><path fill="url(#G)" d="M623.767 122.915c-1.269 1.317-2.791 2.328-4.459 2.906-1.417.5-2.977.711-4.643.648l-6.716-.447c-2.378-.121-4.848-.295-7.875.087-1.504.205-3.209.597-4.919 1.452a12.732 12.732 0 0 0-2.963 2.044l-.342.322-.148.153c-.457.475-.782.886-1.082 1.306-1.2 1.72-1.732 3.37-2.11 4.742-.368 1.388-.576 2.586-.788 3.658-.404 2.142-.838 3.764-1.49 4.891a5.916 5.916 0 0 1-1.153 1.467 6.332 6.332 0 0 1-.809.636c-.042.026-.188.125-.323.197a6.073 6.073 0 0 1-.427.219c-1.191.566-2.937.881-4.924.991-1.994.121-4.209.062-6.609.09-2.403.051-5.032.104-8.007.963-5.546 1.666-10.166 5.547-12.905 10.378-1.815 3.166-2.805 6.576-3.257 9.961l8.041 1.949c.389-2.784 1.215-5.384 2.574-7.551a14.13 14.13 0 0 1 3.49-3.844c1.36-1.03 2.953-1.807 4.526-2.217 1.414-.369 3.382-.435 5.507-.384 2.141.043 4.468.195 7.015.137 2.533-.074 5.384-.311 8.387-1.539a15.541 15.541 0 0 0 2.264-1.163 16.192 16.192 0 0 0 1.918-1.401 15.842 15.842 0 0 0 3.208-3.729c1.724-2.775 2.409-5.639 2.942-7.922.264-1.148.493-2.181.741-2.98.239-.806.517-1.319.646-1.45.033-.04.071-.066.008-.001l.153-.147c.027-.026-.152.149-.073.073l.007-.005.014-.01.027-.021c.035-.029.068-.06.105-.081.14-.1.275-.176.448-.25.334-.146.871-.284 1.618-.353 1.491-.148 3.583-.009 5.728.196l3.327.342 1.714.179.858.087.424.042.539.042c2.861.22 5.9-.035 8.809-.937a21.716 21.716 0 0 0 3.337-1.327c-.666-3.474-1.619-8.462-2.353-12.399z"/><path fill="#A99BAB" d="M455.26 339.845v157.334l-165.264-55.334V320.333z"/><path fill="#92A6EB" d="m279.79 335.027 156.667 23.333v141.333l-157.667-51z"/><path fill="#FFF" d="M400.564 404.602v-51.587l-112.173-16.409v67.996z"/><path fill="#F2D265" d="M367.319 360.923c-4.681.964-10.604-1.222-14.732-1.583-6.3-.551-14.804-.722-18.76 5.371-2.93 4.507-.689 8.812 2.597 9.414 2.508.46 5.182-.722 6.196-3.098.936-2.189-.187-4.106-1.806-4.44-1.671-.344-3.249.791-3.581 1.842-.31.981.271 1.5.896 1.446.998-.086 1.429-.964 1.824-.551.506.528-.25 1.833-1.722 2.099-1.109.202-2.503-.06-2.822-2.064-.299-1.88.655-3.598 2.856-4.579 2.044-.91 4.476-.481 5.99 1.652 1.515 2.135 1.05 5.835-.963 7.677-3.007 2.749-6.718 3.094-12.462 4.44-7.335 1.72-18.519 4.458-20.171 13.011-.975 5.053 1.45 8.167 3.798 9.948h86.153v-48.485l-35.752-5.325c.395 2.635 1.653 4.896 2.874 6.204 1.929 2.064 4.268 6.057-.413 7.021z"/><path fill="#EA9F2F" d="M371.949 362.196c-6.299 1.705-12.04-.526-16.11-1.291-5.043-.946-8.83.637-9.5 2.633-1.136 3.377 3.536 4.205 3.253 8.726-.241 3.838-6.729 7.169-15.957 8.52-10.342 1.515-14.259 5.374-14.405 9.983-.138 4.405 3.046 6.54 6.918 6.902 3.708.345 8.502-.488 8.769 3.837h14.194c-1.369-6.221 4.967-5.913 8.845-6.781 4.614-1.032 13.081-2.995 15.491-10.583 2.22-6.998-3.563-7.998-3.098-13.718.413-5.078 10.017-7.046 19.277-9.019 9.371-1.997 7.848-6.472 7.297-8.674 0 0-.02-.096-.045-.265l-25.412-3.785c.404 2.149 1.691 4.073 2.65 5.306 1.152 1.476 2.922 6.833-2.167 8.209z"/><path fill="#6A74EF" d="M334.254 455.257c11.054 1.346 20.92 3.227 24.94 4.734 9.914 3.717 18.176 8.469 34.905 2.893 11.742-3.916 28.976-4.166 38.21-3.969v-63.644c-9.058 2.365-4.082 27.168-8.569 28.06-3.663.727-4.486-11.846-10.579-9.195-6.861 2.985-.369 17.731-5.327 20.244-6.753 3.425-10.017-10.533-13.321-11.461-3.305-.93-4.853 6.195-8.675 5.576-3.821-.62-.067-7.75-5.369-8.06-6.511-.379-12.909 13.017-16.833 12.215-3.511-.717-.516-10.454-4.132-11.282-3.612-.826-8.884 11.422-12.175 11.183-3.727-.27-.008-10.355-4.346-10.667-4.338-.308-9.133 12.955-16.317 12.704-7.185-.252-10.636-13.115-13.941-13.115-3.305 0-3.684 8.434-6.264 8.64-2.583.206-3.375-10.602-6.541-11.015-.725-.095-1.59.564-2.397 1.451-1.428 1.316-8.748 12.525-11.683 11.205-2.806-1.263-.79-14.052-6.761-15.817l-.288 32.757 23.821 7.705 5.048-6.685c8.204 2.145 19.827 2.752 26.594 5.543z"/><path fill="#BE4118" d="M379.23 374.829c-1.704 4.045 3.974 5.026 2.821 12.737-1.023 6.854-12.735 5.921-16.521 8.194-2.256 1.353-2.534 3.905-2.387 5.747h37.467v-31.14c-4.26 2.638-19.192-.73-21.38 4.462z"/><path fill="#E1792B" d="M389.625 361.405c-9.26 1.973-18.864 3.941-19.277 9.019-.465 5.72 5.318 6.721 3.098 13.718-2.41 7.588-10.877 9.552-15.491 10.583-3.878.868-10.214.561-8.845 6.781h14.032c-.146-1.842.131-4.394 2.387-5.747 3.786-2.272 15.498-1.339 16.521-8.194 1.153-7.711-4.525-8.691-2.821-12.737 2.188-5.192 17.119-1.824 21.38-4.462v-17.345l-3.733-.556c.025.169.045.265.045.265.552 2.203 2.075 6.678-7.296 8.675z"/><path fill="#E1792B" d="M344.06 393.553c3.181.626 8.263-.048 9.914-2.204 1.585-2.064.688-4.543 2.064-5.851 1.378-1.308 6.926-5.105 7.987-7.229.963-1.927.207-4.405-1.995-5.163-2.135-.733-3.995.207-4.958 2.134-.963 1.928-1.859 4.82-5.577 6.954-3.103 1.781-10.092 3.692-11.083 6.884-.792 2.548 1.376 4.028 3.648 4.475z"/><circle cx="420.502" cy="441.437" r="4.887" fill="#EA971D"/><path fill="#93778B" d="M359.093 442.368s-2.844-11.224-4.027-19.531c-1.034-7.231-2.272-16.958-2.272-16.958h-8.539v.004l-.002-.004h-8.535s-1.241 9.727-2.272 16.958c-1.186 8.307-4.028 19.531-4.028 19.531h14.836l.002-.005v.005h14.837zm-15.456-8.331a3.924 3.924 0 0 1-3.925-3.924v-12.598a3.925 3.925 0 0 1 3.925-3.925h.618a3.925 3.925 0 0 1 3.925 3.925v12.598a3.925 3.925 0 0 1-3.925 3.924h-.618z"/><path fill="#93778B" d="M284.604 400.991v3.895a3.677 3.677 0 0 0 3.678 3.678h109.927a3.677 3.677 0 0 0 3.678-3.678v-3.895H284.604z"/><path fill="#EA971D" d="M343.489 466.319c7.149 2.15 14.082 4.477 19.631 6.547 14.399 5.367 59.187-4.617 69.189-6.961V453.63c-10.186 2.275-22.668 2.303-55.008-8.852-26.243-9.053-67.17-2.98-88.746 7.075l43.462 14.059c5.911-.846 10.901-1.217 11.472.407z"/><path fill="#F2D265" d="M420.536 449.458c-15.351.206-28.844 9.982-33.795 10.138-7.173.227-17.977-5.113-30.126-5.801-8.37-.474-26.909 1.944-39.503 7.293l74.344 24.048c1.391.15 2.616.539 3.629 1.174l37.226 12.041v-47.689c-3.29-.749-7.229-1.265-11.775-1.204z"/><path fill="#93778B" d="M288.997 401.541v-64.696l-4.393-.43v65.126zM401.888 401.541v-48.329l-2.892-.431v48.76z"/><path fill="#EA971D" d="M421.463 379.909c.759.731 1.5 1.479 2.227 2.238.731.756 1.438 1.536 2.17 2.29.731.755 1.477 1.501 2.13 2.324.168.204.326.413.484.624.155.216.316.422.451.655.134.23.248.48.337.753.088.273.154.564.159.91a3.11 3.11 0 0 1-.884-.271 3.966 3.966 0 0 1-.706-.43c-.213-.162-.398-.349-.592-.528-.19-.184-.376-.368-.56-.558-.733-.754-1.38-1.585-2.036-2.407-.658-.822-1.342-1.619-2-2.439a75.836 75.836 0 0 1-1.942-2.491.506.506 0 0 1 .105-.71.508.508 0 0 1 .657.04z"/><path fill="#EAAEA4" d="M407.176 452.837c.704 1.469 4.449 10.639 4.238 11.338-.213.697-9.559 3.91-11.496 3.201-.252-.094-.207-.689.192-.906 1.014-.555 6.004-3.605 6.446-4.535.404-.855-3.529-6.939-3.46-6.977.216-.115 4.08-2.121 4.08-2.121z"/><path fill="#FFF" d="M411.01 462.528c-.374-1.131-.961-2.691-1.571-4.24-1.316 1.152-2.777 1.387-3.64 1.42.532 1.049.892 1.938.757 2.227-.179.373-1.089 1.088-2.179 1.846 1.473.117 4.277.342 4.334.342.043-.001 1.233-.839 2.299-1.595z"/><path fill="#5B252C" d="M399.918 467.376c1.938.709 11.283-2.504 11.496-3.201.06-.199-.2-1.082-.62-2.277-.667.375-1.36 1.225-1.848 1.449-.672.313-1.275.277-2.385.07-.551-.104-.959-.203-1.328-.252-1.676 1.258-4.403 2.912-5.123 3.305-.399.217-.444.812-.192.906z"/><path fill="#D36A1A" d="M388.387 421.439c.069 1.651 2.408 15.834 3.371 21.341.965 5.507 2.91 14.835 3.426 14.992.516.154 3.305.309 8.313-.723 5.008-1.033 8.675-3.047 8.726-3.254.053-.207-5.247-12.22-7.896-19.143-2.648-6.922-4.289-12.974-4.289-12.974l-11.651-.239z"/><path fill="#EAAEA4" d="M380.934 457.978c-.156 1.705-1.963 11.979-2.529 12.496-.569.516-12.705-.104-12.705-.93s.828-.826 2.016-1.084c1.188-.258 6.795-1.783 7.451-2.529.658-.748.786-8.236.708-8.258-.078-.02 5.059.305 5.059.305z"/><path fill="#FFF" d="M375.703 462.95c-.114 1.447-.287 2.697-.536 2.98-.296.336-1.601.83-3.05 1.297l.608.818 2.685 1.396 3.486-.408c.333-1.313.741-3.338 1.105-5.309-2.91.068-3.628-.444-4.298-.774z"/><path fill="#5B252C" d="M365.7 469.544c0 .826 12.136 1.445 12.705.93.163-.148.427-1.1.725-2.42-.961.072-1.862.75-3.103.75-1.246 0-2.328-1.119-3.119-1.84-1.917.66-4.439 1.332-5.192 1.496-1.188.258-2.016.258-2.016 1.084z"/><path fill="#BE4118" d="M376.648 422.608c-.825 1.586-6.765 17.453-8.26 22.72-1.5 5.268-2.688 10.171-2.378 10.583.312.414 3.204 1.912 7.902 2.635 4.699.723 10.65 1.33 11.366 1.025.715-.303 1.663-13.28 3.039-21.196 1.378-7.919 3.651-15.697 3.651-15.697l-15.32-.07z"/><path fill="#EAAEA4" d="M398.611 378.445c-.172.997-.862 4.232-1.963 5.645-1.103 1.412 6.678.516 6.678.516s-.165-4.021.034-6.747c.002-.832-.86-1.308-2.117-1.144-1.383.181-2.632 1.73-2.632 1.73z"/><path fill="#FCC3BB" d="M398.411 368.031c-.633.503-1.252 1.537-1.833 2.608-.433.798-.633 1.097-1.625 1.781-.78.536-1.282.718-1.316 1.11-.035.388.929.827.954 1.162.025.336-.725 3.444.594 4.673.895.835 3.977.921 6.703-1.179 2.444-1.882 4.27-6.515 3.392-8.864-.879-2.349-6.869-1.291-6.869-1.291z"/><path fill="#5B252C" d="M400.296 361.396c.756.25 1.016 1.455.851 2.014-.167.575-.537 1.438 1.293 1.833 1.628.352 7.022 1.523 7.46 6.532.514 5.861-6.403 8.339-7.565 6.815-1.718-2.252-1.725-5.103-1.083-6.144.44-.713 2.006-.835 1.857-1.807-.215-1.402-3.201-1.194-5.162-2.146-1.963-.952-2.607-2.837-2.325-4.541.331-1.98 2.606-3.237 4.674-2.556z"/><path fill="#5B252C" d="M413.863 371.197c.396 1.664-.305 3.425-1.587 3.701-1.36.294-2.58-.793-3.034-2.598-.417-1.659.032-3.462 1.518-3.838 1.429-.361 2.706 1.072 3.103 2.735z"/><path fill="#5B252C" d="M418.61 367.48c.793 1.854.177 3.714-1.424 4.412-2.037.889-3.772-.234-4.566-2.088-.796-1.854-.108-4.269 1.498-4.957 1.605-.687 3.696.779 4.492 2.633z"/><path fill="#5B252C" d="M421.105 363.487c.97 1.205.697 3.006-.413 3.9-1.112.894-2.798.641-3.768-.565-.97-1.206-1.021-2.76.09-3.655 1.11-.892 3.121-.885 4.091.32z"/><path fill="#EA971D" d="M406.011 368.581a7.066 7.066 0 0 1-.642 2.684 9.104 9.104 0 0 1-1.536 2.312 11.022 11.022 0 0 1-1.816 1.622c-.092.062-.193.131-.264.173l1.117 1.634c.133-.1.234-.183.342-.276.105-.089.208-.181.312-.273a13.184 13.184 0 0 0 1.631-1.81 10.714 10.714 0 0 0 1.539-2.862 8.376 8.376 0 0 0 .461-3.22 8.21 8.21 0 0 0-.257-1.628 10.145 10.145 0 0 0-1.167-.646c.204.755.308 1.528.28 2.29z"/><circle cx="402.31" cy="376.189" r="2.686" fill="#BE4118"/><path fill="#EAAEA4" d="M415.581 397.961c.748-.628 1.573-3.88 2.099-7.503.339-2.337.568-3.919 1.034-4.786.454-.846 1.669-1.589 2.16-1.944.658-.478 1.651-1.575 1.986-1.368.337.206-.05 1.265-.438 1.756-.388.49-.929 1.213-.929 1.213s1.833-.233 2.892-.233c1.057 0 3.875-.33 4.026.388.112.534-1.137.722-1.601.903-.466.181-.878.25-.956 1.127-.076.878-.369 1.909-1.016 1.984-.645.078-3.759-.117-3.759-.117s.007 6.377-.647 10.198c-.653 3.82-1.481 4.99-1.481 4.99l-3.37-6.608z"/><path fill="#2421A2" d="M414.187 398.057c.165-.219 1.316-.671 1.573-.491.259.181 3.263 3.271 3.873 6.815.661 3.831.027 5.645-.491 5.757-.624.135-5.827-.207-7.818-3.021-1.992-2.812 2.863-9.06 2.863-9.06z"/><path fill="#3F40BB" d="M407.112 389.563c1.137.669 5.458 4.545 7.022 7.796 1.679 3.484 1.614 8.457-.516 9.759-2.323 1.419-4.543-2.013-5.68-4.336-1.135-2.324-2.752-4.889-3.374-5.974-.619-1.083 1.307-6.264 1.307-6.264l1.241-.981z"/><path fill="#3A39B6" d="M393.515 384.743c1.86-1.169 11.691-1.762 12.083-.413.31 1.068-1.688 1.479-2.101 3.408-.412 1.928-9.982-2.995-9.982-2.995z"/><path fill="#2421A2" d="M388.938 385.879c1.239-.965 3.871-1.841 5.99-1.171 2.114.672 4.405 2.118 5.683 2.273s3.048.238 3.048.238 3.247 1.62 3.454 2.344c.206.722-.521 4.709-2.789 9.036-2.436 4.646-2.172 6.688-1.963 9.757.202 2.915 2.841 11.67 2.479 13.012-.36 1.343-5.265 3.201-16.057 3.357-10.792.155-18.795-1.033-18.795-2.066 0-1.032 3.467-11.715 4.096-12.331.5-.492.812-.061 1.016-.344.208-.284 2.841-6.068 4.958-9.682s7.398-13.27 8.88-14.423z"/><path fill="#3F40BB" d="M384.677 415.25c1.61-.576 2.023-3.381 1.612-3.35-2.188.158-9.485-.806-11.283-1.837-.204.103-.493-.158-.924.266-.3.294-1.248 2.89-2.158 5.631 2.819.061 10.994-.079 12.753-.71z"/><path fill="#EA971D" d="M407.112 389.563c-.172-.606-2.481-1.843-3.222-2.227.264.401.674 1.089-.358 1.538-1.032.447-5.299 1.067-5.059 2.753.241 1.688 2.96.034 3.612.931.656.894-2.477 3.201-1.238 4.096 1.238.894 2.135-2.066 3.201-1.929.812.105 1.025 1.204 1.096 2.179 1.624-3.63 2.147-6.715 1.968-7.341z"/><path fill="#F2D265" d="M402.19 419.993c-1.516-.31-2.617.86-3.201.516-.585-.344 2.201-2.719.894-3.614s-2.96 2.375-3.305 2.341c-.344-.034 1.411-4.302 1.654-5.749.241-1.446.516-4.682-.897-4.923-1.41-.242-2.754 2.375-3.373 3.58-.62 1.205-1.273 5.163-1.617 5.301-.344.138-.482-5.335-.553-6.127-.067-.792-.207-1.702-1.167-1.72-.846-.018-1.241.998-1.344 1.961-.103.965.757 8.263-.14 8.4-.894.138-1.823-3.029-2.58-2.582-.759.447-.275 2.204.138 3.511.316 1.004 1.261 2.729 1.761 3.841l.321-.002c9.038-.131 13.945-1.455 15.514-2.672-.426-.792-1.167-1.87-2.105-2.062z"/><path fill="#FCC3BB" d="M370.648 386.205c-1.33-.538-12.21-6.89-12.289-8.053-.082-1.198-.262-2.196-.32-2.86-.106-1.21.391-3.14.167-3.318-.329-.262-.836.222-1.264.911-.338.543-1.254 2.718-1.254 2.718s-.969.085-2.591-.533c-1.622-.617-3.304-1.833-3.924-1.479-.538.307.252 1.008.638 1.329.385.321.776.9.894 1.087.307.483.778 2.05.655 2.715-.068.376-.392.512-.291.967.106.479 2.164 1.591 3.266 1.603.857.009.952-.241 1.182-.091.397.26 9.116 8.995 11.997 10.065 2.878 1.075 3.134-5.061 3.134-5.061z"/><path fill="#5C60D5" d="M392.93 384.83c1.298 1.763.089 6.178-4.813 8.519-5.418 2.588-15.639 3.32-18.995 1.937-3.356-1.381-.714-4.196.123-5.933.834-1.736 1.614-4.713 3.792-4.464 2.176.25 4.286 1.91 5.271 1.848.981-.061 10.75-2.711 12.201-2.89a2.602 2.602 0 0 1 2.421.983z"/><path fill="#3A39B6" d="M373.528 384.97c-1 .905-2.56 5.849-2.589 8.51-.031 2.664.37 3.861-.178 3.885-1.132.051-7.856-1.86-8.309-3.833-.351-1.538 2.12-3.438 3.611-5.573.962-1.377 1.823-3.248 2.998-3.551 1.702-.439 4.467.562 4.467.562z"/><path fill="#F2D265" d="M376.778 391.064c.975.562 1.419-1.951 2.168-2.118 1.134-.251 1.724 2.079 3.192 2.785.465.224 1.365.341 1.97-.203.466-.419.696-1.127.344-1.814-.334-.646-1.11-1.084-.939-1.587.21-.624 1.169.153 2.449-.635.96-.591 1.061-2.041.311-2.669-3.236.81-7.188 1.833-7.924 1.91-.935 1.03-2.719 3.67-1.571 4.331z"/><linearGradient id="H" x1="345.835" x2="353.681" y1="369.614" y2="366.758" gradientUnits="userSpaceOnUse"><stop offset="0" stop-color="#dc6734"/><stop offset="1" stop-color="#ae2e41"/></linearGradient><path fill="url(#H)" d="m345.809 369.542 7.403 5.256v-9.325l-7.403-3.718z"/><linearGradient id="I" x1="353.212" x2="360.294" y1="368.405" y2="368.405" gradientUnits="userSpaceOnUse"><stop offset="0" stop-color="#2421a2"/><stop offset="1" stop-color="#5c60d5"/></linearGradient><path fill="url(#I)" d="m360.294 369.991-7.082 4.807v-9.325l7.082-3.462z"/><linearGradient id="J" x1="353.052" x2="353.052" y1="365.473" y2="359.255" gradientUnits="userSpaceOnUse"><stop offset="0" stop-color="#dc6734"/><stop offset="1" stop-color="#ea971d"/></linearGradient><path fill="url(#J)" d="m353.212 365.473 7.082-3.462-7.168-2.756-7.317 2.5z"/><linearGradient id="K" x1="277.678" x2="453.511" y1="322.25" y2="498.084" gradientUnits="userSpaceOnUse"><stop offset="0" stop-color="#e3dde4"/><stop offset="1" stop-color="#fff"/></linearGradient><path fill="url(#K)" d="m284.594 341.143 146.333 20.618v130.39l-146.333-47.538v-103.47m-12-13.81v126l170.333 55.334V351.333l-170.333-24z"/><radialGradient id="L" cx="301.619" cy="394.132" r="117.655" gradientTransform="matrix(-.0519 -.9987 .5267 -.0274 109.69 706.136)" gradientUnits="userSpaceOnUse"><stop offset="0" stop-color="#e08d7d"/><stop offset=".035" stop-color="#e49587"/><stop offset=".137" stop-color="#efaa9e"/><stop offset=".247" stop-color="#f6b8ae"/><stop offset=".369" stop-color="#fbc0b8"/><stop offset=".527" stop-color="#fcc3bb"/><stop offset="1" stop-color="#eaaea4"/></radialGradient><path fill="url(#L)" d="M336.552 463.75c7.25 11.125 11.5 23.375 15.25 27s5.625 2.25 5.625 2.25 3.987 3.002 7.188 2.438c2.125-.375-.375-2.938 1.375-1.688s5.009 1.313 6.398.83c2.037-.709.708-2.518.708-2.518s3.207.688 5.457 0c2.879-.88 2.625-3.313 2.625-3.313s-5.313-.75-10.875-3.875c-4.283-2.406-7.925-8.93-6.792-9.708.667-.458 5.181 2.165 7.083 3.834 3.063 2.688 8.521 4.25 9.083 2.625.718-2.074-7.439-10.896-11.875-15.001-3.892-3.603-8.375-2.5-13.625-10.375-4-6-25.75-55.5-25.75-64 0-5.218 11.497-23.342 23.612-39.686-13.154-14.384-24.118-17.425-32.012-17.809-11.5 21.438-19.957 45.657-20.601 57.494-1.249 23.002 29.876 60.377 37.126 71.502z"/><path fill="#9B6D6D" d="M361.549 481.829c.388 1.076 1.272 2.214 2.117 3.219a24 24 0 0 0 2.886 2.825c2.08 1.718 4.459 3.11 7.053 3.885a.395.395 0 0 1 .266.489.398.398 0 0 1-.474.271c-2.749-.694-5.301-2.044-7.555-3.748a25.208 25.208 0 0 1-3.16-2.839 20.684 20.684 0 0 1-1.387-1.639c-.427-.585-.857-1.176-1.157-1.953a.75.75 0 0 1 1.399-.54l.004.013.008.017zM358.088 484.887c.839 1.858 2.02 3.587 3.43 5.099 1.414 1.509 3.09 2.787 4.965 3.702a.32.32 0 0 1-.261.586c-2.011-.817-3.863-2.038-5.46-3.529a20.237 20.237 0 0 1-4.018-5.189l-.002-.005a.75.75 0 1 1 1.323-.709c.009.013.017.03.023.045zM354.886 487.773a19.773 19.773 0 0 0 1.461 2.981c.573.941 1.224 1.857 2.054 2.548l.009.008a.294.294 0 0 1-.345.475c-1.024-.645-1.835-1.522-2.574-2.433a20.346 20.346 0 0 1-1.038-1.422 22.29 22.29 0 0 1-.917-1.503l-.006-.012a.751.751 0 1 1 1.356-.642z"/><linearGradient id="M" x1="320.027" x2="374.493" y1="323.346" y2="323.346" gradientUnits="userSpaceOnUse"><stop offset="0" stop-color="#5c60d5"/><stop offset="1" stop-color="#2421a2"/></linearGradient><path fill="url(#M)" d="M352.039 352.564c7.619-10.277 15.482-19.853 20.888-25.064 6.5-21.75-8.871-34.784-16.25-33.25-12.255 2.548-25.805 20.29-36.649 40.506 7.893.383 18.857 3.424 32.011 17.808z"/></svg>